<svg width="32" height="37" viewBox="0 0 32 37" fill="none" xmlns="http://www.w3.org/2000/svg">
<path d="M16.8067 0.0308478C18.817 1.17215e-07 20.8126 0.0160408 22.8069 0C22.8732 2.50607 23.8851 4.76166 25.4951 6.43237L25.4926 6.4299C27.2254 7.9982 29.4801 9.01494 31.9656 9.18769L32 9.19016V15.4041C29.652 15.3449 27.444 14.8007 25.4533 13.8654L25.554 13.9074C24.5912 13.4422 23.777 12.9647 23.0034 12.4316L23.0672 12.4736C23.0525 16.9761 23.082 21.4787 23.0365 25.9652C22.9101 28.2516 22.1536 30.3369 20.9403 32.0779L20.9648 32.0397C18.9361 34.9591 15.6499 36.8754 11.913 36.9889H11.8958C11.7447 36.9963 11.5666 37 11.3874 37C9.26285 37 7.27711 36.4053 5.58487 35.3725L5.63399 35.4009C2.55407 33.5389 0.429558 30.3529 0.0365855 26.6475L0.0316734 26.5969C0.000972365 25.8257 -0.0137642 25.0545 0.0169368 24.2994C0.618676 18.4025 5.53575 13.8408 11.5126 13.8408C12.1844 13.8408 12.8426 13.8988 13.4824 14.0086L13.4136 13.9987C13.4443 16.2802 13.3522 18.5629 13.3522 20.8444C12.8328 20.6556 12.2335 20.5458 11.6084 20.5458C9.31443 20.5458 7.36307 22.0191 6.64098 24.076L6.62993 24.1131C6.4666 24.6399 6.37204 25.2458 6.37204 25.8726C6.37204 26.1268 6.38801 26.3785 6.41748 26.6253L6.41502 26.5957C6.82273 29.1203 8.97671 31.0254 11.574 31.0254C11.6489 31.0254 11.7226 31.0242 11.7963 31.0205H11.7852C13.5819 30.9662 15.1415 29.9951 16.0232 28.5601L16.0355 28.5379C16.3634 28.0788 16.5881 27.5236 16.663 26.9202L16.6642 26.9029C16.8177 24.1427 16.7563 21.3985 16.7711 18.6382C16.7858 12.4242 16.7563 6.22507 16.8018 0.0271461L16.8067 0.0308478Z" fill="#E5E7EB"/>
</svg>
