<svg width="32" height="32" viewBox="0 0 32 32" fill="none" xmlns="http://www.w3.org/2000/svg">
<g clip-path="url(#clip0_132_580)">
<path fill-rule="evenodd" clip-rule="evenodd" d="M12.7815 20.1376V11.1587C15.969 12.6586 18.4377 14.1075 21.3575 15.6696C18.9493 17.0052 15.969 18.5037 12.7815 20.1376ZM30.5456 6.69306C29.9958 5.96864 29.0586 5.40475 28.0609 5.21806C25.1284 4.66118 6.83358 4.65959 3.90264 5.21806C3.10257 5.36804 2.39014 5.73058 1.77813 6.29384C-0.80058 8.68728 0.00746589 21.5225 0.629035 23.6017C0.890411 24.5016 1.2283 25.1506 1.65384 25.5767C2.20209 26.1399 2.95275 26.5277 3.81497 26.7017C6.22953 27.2011 18.6689 27.4803 28.0099 26.7767C28.8706 26.6267 29.6324 26.2264 30.2332 25.6392C32.6175 23.2553 32.4549 9.69922 30.5456 6.69306Z" fill="#E5E7EB"/>
</g>
<defs>
<clipPath id="clip0_132_580">
<rect width="32" height="32" fill="white"/>
</clipPath>
</defs>
</svg>
